<?xml version="1.0" encoding="utf-8"?>
<!-- Generator: Adobe Illustrator 21.0.0, SVG Export Plug-In . SVG Version: 6.00 Build 0)  -->
<svg version="1.1" id="Layer_1" xmlns="http://www.w3.org/2000/svg" xmlns:xlink="http://www.w3.org/1999/xlink" x="0px" y="0px"
	 viewBox="0 0 100 100" style="enable-background:new 0 0 100 100;" xml:space="preserve">
<style type="text/css">
	.st0{fill:#315B91;}
</style>
<path class="st0" d="M92.6,95.5c-2.8-1.1-3.9-3.2-4.3-6.1c-0.8-5.6-2.1-11-2.6-16.6c-0.5-4.8-0.1-9.6-0.4-14.4
	c-0.1-1.8-0.6-3.6-1.4-5.2c-2.2-4.2-4.8-8.3-7.3-12.7c-2.1,1.2-4.1,2.2-6.1,3.4c-2.3,1.4-4.7,1.8-7.4,1.2c-3.5-0.8-7.1-1.4-10.6-2.1
	c-2.4-0.5-3.8-2.1-3.6-3.8c0.3-1.8,2-2.8,4.5-2.6c1.4,0.1,2.8,0,4.1,0.3c5.5,1.5,9.8-0.3,13.5-4.3c1.6-1.7,3.5-3.1,5.3-4.5
	c4.5-3.3,9.8-2.1,12.4,2.9c2.6,5.1,5.2,10.1,7.6,15.3c0.8,1.7,1.1,3.7,1.6,5.5c0,0.6,0,1.3,0,1.9c-2,7.9-3.8,15.8-1.9,24.1
	c0.9,3.6,1.2,7.4,1.9,11.1c0,1,0,1.9,0,2.9c-1.3,1.3-2.6,2.6-3.9,3.9C93.6,95.5,93.1,95.5,92.6,95.5z"/>
<path class="st0" d="M2.1,83.4c7.5,0,15,0.1,22.6,0.1c12,0,23.9,0,35.9,0c0.7,0,1.5,0,2.4,0c0,1.2,0,2.2,0,3.4
	c-0.6,0.1-1.2,0.2-2.1,0.3c0,1.4,0,2.9,0,4.4c0.7,0.1,1.3,0.3,2.1,0.4c0,1,0,2,0,3.1c-0.7,0.1-1.3,0.2-1.8,0.2
	c-19.2,0-38.4,0-57.7,0c-0.5,0-1-0.1-1.4-0.1c0-1.1,0-2.2,0-3.3c2.7-0.3,2.9-0.8,2.1-4.9c-0.7,0-1.4,0-2.1,0
	C2.1,85.9,2.1,84.6,2.1,83.4z M12.1,91.7c5.6,0,11.1,0,16.7,0c0-1.6,0-3.1,0-4.5c-5.6,0-11.1,0-16.7,0
	C12.1,88.8,12.1,90.2,12.1,91.7z M52.9,87.2c-5.4,0-10.8,0-16.3,0c0,1.6,0,3,0,4.7c4.4,0,8.7,0,12.9,0c4,0,4.2-0.2,3.6-4.3
	C53.1,87.5,53,87.4,52.9,87.2z"/>
<path class="st0" d="M71.4,95.5c-2.7-1.6-3.3-4-2.9-7c0.9-6.7,1.6-13.4,2.5-20.1c0.1-0.9,0.3-1.9,0.9-2.4c3.6-3.7,7.2-7.2,11.3-11.2
	c0.1,1.5,0.2,2.4,0.2,3.3c0,2.4-0.1,4.8,0.1,7.2c0.2,2.1-0.5,3.6-2.2,4.9c-0.9,0.6-1.5,2-1.7,3.1c-0.8,5.7-1.4,11.5-2,17.2
	c-0.2,2.3-1.5,3.8-3.3,5C73.3,95.5,72.4,95.5,71.4,95.5z"/>
<path class="st0" d="M73.8,10.7c3.9,1.3,5.6,4.3,6.1,8.1c0.5,3.3-1.6,6.6-4.8,7.8c-3.2,1.2-6.8,0.1-8.7-2.6
	c-0.5-0.6-0.8-1.4-1.3-2.3c-0.9,0.3-1.9,0.7-2.9,0.9c-0.4,0.1-1-0.4-1.5-0.6c0.2-0.4,0.4-1.1,0.7-1.2c2.3-0.4,2.7-1.9,2.9-4
	c0.3-3.5,3.2-4.8,6.1-6C71.6,10.7,72.7,10.7,73.8,10.7z"/>
<path class="st0" d="M53.6,43.8c-7.7,0-15.2,0-22.8,0c-0.1-0.6-0.2-1.1-0.2-1.6c0-6.5,0-13,0-19.5c0-1.5,0.4-2,2-2
	c2.6,0.1,5.3,0,8.1,0c0,1.7,0,3.1,0,4.7c1,0,1.8,0,2.9,0c0-1.4,0-2.8,0-4.5c3.4,0,6.7,0,10.1,0C53.6,28.5,53.6,36,53.6,43.8z"/>
<path class="st0" d="M26,81.1c-7.7,0-15.2,0-22.8,0C3.1,80.6,3,80,3,79.5c0-6.5,0-13,0-19.5c0-1.5,0.4-2,2-2c2.6,0.1,5.3,0,8.1,0
	c0,1.7,0,3.1,0,4.7c1,0,1.8,0,2.9,0c0-1.4,0-2.8,0-4.5c3.4,0,6.7,0,10.1,0C26,65.8,26,73.4,26,81.1z"/>
<path class="st0" d="M27.2,54.9c-7.7,0-15.2,0-22.8,0c-0.1-0.6-0.2-1.1-0.2-1.6c0-6.5,0-13,0-19.5c0-1.5,0.4-2,2-2
	c2.6,0.1,5.3,0,8.1,0c0,1.7,0,3.1,0,4.7c1,0,1.8,0,2.9,0c0-1.4,0-2.8,0-4.5c3.4,0,6.7,0,10.1,0C27.2,39.6,27.2,47.1,27.2,54.9z"/>
<path class="st0" d="M27.2,29c-7.7,0-15.2,0-22.8,0c-0.1-0.6-0.2-1.1-0.2-1.6c0-6.5,0-13,0-19.5c0-1.5,0.4-2,2-2
	c2.6,0.1,5.3,0,8.1,0c0,1.7,0,3.1,0,4.7c1,0,1.8,0,2.9,0c0-1.4,0-2.8,0-4.5c3.4,0,6.7,0,10.1,0C27.2,13.7,27.2,21.2,27.2,29z"/>
</svg>
