<svg xmlns="http://www.w3.org/2000/svg" width="100" height="100" viewBox="0 0 50 50" style="fill: rgb(49, 91, 145);">
    <path d="M40,0H10C4.486,0,0,4.486,0,10v30c0,5.514,4.486,10,10,10h30c5.514,0,10-4.486,10-10V10C50,4.486,45.514,0,40,0z M34.5,7 c3.037,0,5.5,2.462,5.5,5.5S37.537,18,34.5,18S29,15.538,29,12.5S31.463,7,34.5,7z M22,7c2.209,0,4,1.791,4,4s-1.791,4-4,4 s-4-1.791-4-4S19.791,7,22,7z M12,8c1.657,0,3,1.343,3,3s-1.343,3-3,3s-3-1.343-3-3S10.343,8,12,8z M43,42H25v-5h-9v-5H7v-8 c0-2.7,2.1-5,5-5s5,2.9,5,4c0,0,1.8-3,5.5-3s5.5,4,5.5,4s2-2,6-2c4.9,0,9,4.1,9,9V42z"/>
</svg>