<?xml version="1.0" encoding="utf-8"?>
<!-- Generator: Adobe Illustrator 21.0.0, SVG Export Plug-In . SVG Version: 6.00 Build 0)  -->
<svg version="1.1" id="Layer_1" xmlns="http://www.w3.org/2000/svg" xmlns:xlink="http://www.w3.org/1999/xlink" x="0px" y="0px"
	 viewBox="0 0 20 20" style="enable-background:new 0 0 20 20;" xml:space="preserve">
<style type="text/css">
	.st0{fill:#F79421;}
	.st1{fill:#EF4136;}
	.st2{fill:#45A146;}
</style>
<g>
	<path class="st0" d="M7.1,5.5v1.8H5V5.5c-0.5,0-0.9,0-1.4,0C3.2,5.5,3.1,5.6,3.1,6c0,1.7,0,3.4,0,5c0,0.1,0,0.3,0,0.4
		c2,0,3.9,0,5.9,0c0-2,0-4,0-5.9C8.4,5.5,7.8,5.5,7.1,5.5z"/>
</g>
<g>
	<path class="st0" d="M14.8,5.7v1.8h-2.1V5.6c-0.5,0-0.9,0-1.4,0c-0.4,0-0.5,0.1-0.5,0.5c0,1.7,0,3.4,0,5c0,0.1,0,0.3,0,0.4
		c2,0,3.9,0,5.9,0c0-2,0-4,0-5.9C16.1,5.7,15.4,5.7,14.8,5.7z"/>
</g>
<g>
	<path class="st1" d="M72.5,9.3h1.3V8.9H55.2v0.5h1.5v1.3h-1.5v0.4h18.7v-0.5h-1.3V9.3z M61.6,10.6h-4.3V9.3h4.3V10.6z M66.6,10.6
		h-4.3V9.3h4.3V10.6z M71.7,10.6h-4.3V9.3h4.3V10.6z"/>
</g>
<g>
	<path class="st0" d="M18,12.5h1.3v-0.4H0.7v0.5h1.5v1.3H0.7v0.4h18.7v-0.5H18V12.5z M7.1,13.8H2.7v-1.3h4.3V13.8z M12.1,13.8H7.8
		v-1.3h4.3V13.8z M17.2,13.8h-4.3v-1.3h4.3V13.8z"/>
</g>
<g>
	<path class="st2" d="M32.5,9v1.8h-2.1V8.9c-0.5,0-0.9,0-1.4,0c-0.4,0-0.5,0.1-0.5,0.5c0,1.7,0,3.4,0,5c0,0.1,0,0.3,0,0.4
		c2,0,3.9,0,5.9,0c0-2,0-4,0-5.9C33.8,9,33.1,9,32.5,9z"/>
</g>
<g>
	<path class="st2" d="M40.1,9.1V11H38V9.1c-0.5,0-0.9,0-1.4,0c-0.4,0-0.5,0.1-0.5,0.5c0,1.7,0,3.4,0,5c0,0.1,0,0.3,0,0.4
		c2,0,3.9,0,5.9,0c0-2,0-4,0-5.9C41.4,9.1,40.8,9.1,40.1,9.1z"/>
</g>
<g>
	<path class="st2" d="M32.3,2.2V4h-2.1V2.1c-0.5,0-0.9,0-1.4,0c-0.4,0-0.5,0.1-0.5,0.5c0,1.7,0,3.4,0,5c0,0.1,0,0.3,0,0.4
		c2,0,3.9,0,5.9,0c0-2,0-4,0-5.9C33.6,2.2,33,2.2,32.3,2.2z"/>
</g>
<g>
	<path class="st2" d="M40,2.3v1.8h-2.1V2.3c-0.5,0-0.9,0-1.4,0c-0.4,0-0.5,0.1-0.5,0.5c0,1.7,0,3.4,0,5c0,0.1,0,0.3,0,0.4
		c2,0,3.9,0,5.9,0c0-2,0-4,0-5.9C41.3,2.3,40.6,2.3,40,2.3z"/>
</g>
<g>
	<path class="st2" d="M43.4,16h1.3v-0.4H26v0.5h1.5v1.3H26v0.4h18.7v-0.5h-1.3V16z M32.4,17.4h-4.3V16h4.3V17.4z M37.4,17.4h-4.3
		v-1.3h4.3V17.4z M42.5,17.4h-4.3v-1.3h4.3V17.4z"/>
</g>
</svg>
