<?xml version="1.0" encoding="utf-8"?>
<!-- Generator: Adobe Illustrator 21.0.0, SVG Export Plug-In . SVG Version: 6.00 Build 0)  -->
<svg version="1.1" id="Layer_1" xmlns="http://www.w3.org/2000/svg" xmlns:xlink="http://www.w3.org/1999/xlink" x="0px" y="0px"
	 viewBox="0 0 20 20" style="enable-background:new 0 0 20 20;" xml:space="preserve">
<style type="text/css">
	.st0{fill:#F79421;}
	.st1{fill:#EF4136;}
	.st2{fill:#45A146;}
</style>
<g>
	<path class="st0" d="M-47.4,5.5v1.8h-2.1V5.5c-0.5,0-0.9,0-1.4,0c-0.4,0-0.5,0.1-0.5,0.5c0,1.7,0,3.4,0,5c0,0.1,0,0.3,0,0.4
		c2,0,3.9,0,5.9,0c0-2,0-4,0-5.9C-46.1,5.5-46.7,5.5-47.4,5.5z"/>
</g>
<g>
	<path class="st0" d="M-39.7,5.7v1.8h-2.1V5.6c-0.5,0-0.9,0-1.4,0c-0.4,0-0.5,0.1-0.5,0.5c0,1.7,0,3.4,0,5c0,0.1,0,0.3,0,0.4
		c2,0,3.9,0,5.9,0c0-2,0-4,0-5.9C-38.4,5.7-39.1,5.7-39.7,5.7z"/>
</g>
<g>
	<path class="st1" d="M18,9.3h1.3V8.9H0.7v0.5h1.5v1.3H0.7v0.4h18.7v-0.5H18V9.3z M7.1,10.6H2.7V9.3h4.3V10.6z M12.1,10.6H7.8V9.3
		h4.3V10.6z M17.2,10.6h-4.3V9.3h4.3V10.6z"/>
</g>
<g>
	<path class="st0" d="M-36.5,12.5h1.3v-0.4h-18.7v0.5h1.5v1.3h-1.5v0.4h18.7v-0.5h-1.3V12.5z M-47.4,13.8h-4.3v-1.3h4.3V13.8z
		 M-42.4,13.8h-4.3v-1.3h4.3V13.8z M-37.3,13.8h-4.3v-1.3h4.3V13.8z"/>
</g>
<g>
	<path class="st2" d="M-22,9v1.8h-2.1V8.9c-0.5,0-0.9,0-1.4,0C-25.9,8.9-26,9-26,9.4c0,1.7,0,3.4,0,5c0,0.1,0,0.3,0,0.4
		c2,0,3.9,0,5.9,0c0-2,0-4,0-5.9C-20.7,9-21.4,9-22,9z"/>
</g>
<g>
	<path class="st2" d="M-14.4,9.1V11h-2.1V9.1c-0.5,0-0.9,0-1.4,0c-0.4,0-0.5,0.1-0.5,0.5c0,1.7,0,3.4,0,5c0,0.1,0,0.3,0,0.4
		c2,0,3.9,0,5.9,0c0-2,0-4,0-5.9C-13.1,9.1-13.7,9.1-14.4,9.1z"/>
</g>
<g>
	<path class="st2" d="M-22.2,2.2V4h-2.1V2.1c-0.5,0-0.9,0-1.4,0c-0.4,0-0.5,0.1-0.5,0.5c0,1.7,0,3.4,0,5c0,0.1,0,0.3,0,0.4
		c2,0,3.9,0,5.9,0c0-2,0-4,0-5.9C-20.9,2.2-21.5,2.2-22.2,2.2z"/>
</g>
<g>
	<path class="st2" d="M-14.5,2.3v1.8h-2.1V2.3c-0.5,0-0.9,0-1.4,0c-0.4,0-0.5,0.1-0.5,0.5c0,1.7,0,3.4,0,5c0,0.1,0,0.3,0,0.4
		c2,0,3.9,0,5.9,0c0-2,0-4,0-5.9C-13.2,2.3-13.9,2.3-14.5,2.3z"/>
</g>
<g>
	<path class="st2" d="M-11.1,16h1.3v-0.4h-18.7v0.5h1.5v1.3h-1.5v0.4h18.7v-0.5h-1.3V16z M-22.1,17.4h-4.3V16h4.3V17.4z M-17.1,17.4
		h-4.3v-1.3h4.3V17.4z M-12,17.4h-4.3v-1.3h4.3V17.4z"/>
</g>
</svg>
