<?xml version="1.0" encoding="utf-8"?>
<!-- Generator: Adobe Illustrator 21.0.0, SVG Export Plug-In . SVG Version: 6.00 Build 0)  -->
<svg version="1.1" id="Layer_1" xmlns="http://www.w3.org/2000/svg" xmlns:xlink="http://www.w3.org/1999/xlink" x="0px" y="0px"
	 viewBox="0 0 100 100" style="enable-background:new 0 0 100 100;" xml:space="preserve">
<style type="text/css">
	.st0{fill:#FFFFFF;}
</style>
<g>
	<g>
		<g>
			<path class="st0" d="M54.5,61c-4.9,0.1-9.8,0.1-14.8,0.1c0-2.9,0-5.5,0-8.1c0-6.9-3.8-12.6-10.2-15.1c-10.3-4-21.8,1.7-22,15
				c-0.2,13,0,26,0,39c0,1,0,2,0,2.9c10.9,0,21.5,0,32.2,0c0-5.4,0.1-10.6-0.1-15.8c0-0.8-0.9-1.8-1.6-2.4c-1.4-1.1-3.2-1.7-4.4-2.9
				c-3.9-4-7.7-8.2-11.5-12.3c-0.6-0.7-0.9-1.6-1.4-2.4c0.2-0.2,0.4-0.4,0.7-0.6c0.8,0.6,1.7,1.1,2.4,1.8c3.3,3.5,6.5,7,9.7,10.5
				c2.1,2.4,4.5,3.9,8,3.7c4.5-0.2,8.9-0.1,13.7-0.1V60.8C54.8,60.9,54.6,61,54.5,61z"/>
		</g>
		<path class="st0" d="M38.2,36.7c-9.3,0-16.9-7.5-16.9-16.7c0-9.2,7.5-16.7,16.6-16.7c9.4,0,16.9,7.4,17,16.6
			C55,29.2,47.6,36.7,38.2,36.7z"/>
	</g>
	<rect x="56" y="84.1" class="st0" width="36.6" height="10.7"/>
	<g>
		<path class="st0" d="M58.3,60.8c0,7.4,0,14.5,0,21.8c10.8,0,21.2,0,31.7,0c0-7.4,0-14.6,0-21.8C79.3,60.8,68.8,60.8,58.3,60.8z
			 M79.2,66.5H69c-1.1,0-2-0.9-2-2c0-1.1,0.9-2,2-2h10.2c1.1,0,2,0.9,2,2C81.1,65.6,80.3,66.5,79.2,66.5z"/>
		<path class="st0" d="M74.3,62.7c-1.5,0-3-0.1-4.5,0C71.2,62.6,72.7,62.7,74.3,62.7c1.6,0,3.3-0.2,4.9,0.1
			C77.5,62.6,75.9,62.7,74.3,62.7z"/>
	</g>
	<polygon class="st0" points="59.7,58.8 89.2,58.8 74.4,48.5 	"/>
</g>
</svg>
