<?xml version="1.0" encoding="utf-8"?>
<!-- Generator: Adobe Illustrator 21.0.0, SVG Export Plug-In . SVG Version: 6.00 Build 0)  -->
<svg version="1.1" id="Layer_1" xmlns="http://www.w3.org/2000/svg" xmlns:xlink="http://www.w3.org/1999/xlink" x="0px" y="0px"
	 viewBox="0 0 100 54.5" style="enable-background:new 0 0 100 54.5;" xml:space="preserve">
<style type="text/css">
	.st0{fill:#315C92;}
</style>
<polygon class="st0" points="25.5,8.8 20.3,9.3 20.3,5.3 16.1,6.1 16.1,27 32,27.5 32,3.2 25.5,4.3 "/>
<polygon class="st0" points="25.5,32.4 20.2,31.8 20.3,28.9 16.1,28.7 16.1,49 32,51.9 32,29.3 25.6,29 "/>
<polygon class="st0" points="12.8,6.7 9,7.4 9,10.3 4.9,10.8 4.9,8.2 1.6,8.8 1.6,26.5 14.3,26.9 14.3,6.4 12.8,6.7 "/>
<polygon class="st0" points="9.3,31.3 4.9,30.8 4.9,28.3 4.9,28.3 1.6,28.2 1.6,46.3 14.3,48.6 14.3,28.7 9.3,28.5 "/>
<polygon class="st0" points="36.8,18.6 53.5,18.6 53.5,5.9 47.4,5 47.4,9.5 41.8,8.8 41.8,4.2 33.8,3.1 33.8,27.5 36.8,27.4 "/>
<polygon class="st0" points="36.8,29.2 33.8,29.3 33.8,51.7 53.5,48.9 53.5,38.6 36.8,38.6 "/>
<polygon class="st0" points="63.7,38.6 55.3,38.6 55.3,48.7 74.2,46.1 74.2,38.3 63.7,38.3 "/>
<polygon class="st0" points="74.2,8.5 67.2,7.5 67.2,10.9 62.6,10.4 62.6,6.9 55.3,5.9 55.3,18.4 74.2,18.4 "/>
<g>
	<path class="st0" d="M49.3,34.4c0-4.1,0-7.5,0-11.4c10.6,0,21,0,31.7,0c0-3.7,0-7,0-11.4c6.4,6,12.1,11.3,18.1,17
		c-6,5.6-11.7,11-18,16.9c0-4.1,0-7.4,0-11.1C70.4,34.4,60,34.4,49.3,34.4z"/>
</g>
<rect x="41.3" y="23.1" class="st0" width="14.5" height="11.4"/>
</svg>
