<?xml version="1.0" encoding="utf-8"?>
<!-- Generator: Adobe Illustrator 21.0.0, SVG Export Plug-In . SVG Version: 6.00 Build 0)  -->
<svg version="1.1" id="Layer_1" xmlns="http://www.w3.org/2000/svg" xmlns:xlink="http://www.w3.org/1999/xlink" x="0px" y="0px"
	 viewBox="0 0 100 100" style="enable-background:new 0 0 100 100;" xml:space="preserve">
<style type="text/css">
	.st0{clip-path:url(#SVGID_2_);fill:#315B91;}
	.st1{fill:#315B91;}
	.st2{fill:#FFFFFF;}
	.st3{fill:#315C92;}
</style>
<g>
	<g>
		<defs>
			<rect id="SVGID_1_" x="523.4" y="-32.2" width="94" height="100"/>
		</defs>
		<clipPath id="SVGID_2_">
			<use xlink:href="#SVGID_1_"  style="overflow:visible;"/>
		</clipPath>
		<path class="st0" d="M570.4-11.4c-16.1,0-29.2,13.1-29.2,29.2S554.3,47,570.4,47s29.2-13.1,29.2-29.2S586.5-11.4,570.4-11.4
			L570.4-11.4z M570.4,34.5c-9.2,0-16.7-7.5-16.7-16.7c0-9.2,7.5-16.7,16.7-16.7c9.2,0,16.7,7.5,16.7,16.7
			C587.1,27,579.6,34.5,570.4,34.5L570.4,34.5z"/>
		<path class="st0" d="M617.1,1.7c0,0,0.8-0.4-3.9-8.7c-4.7-8.4-5.4-7.9-5.4-7.9c-5.2,1.7-9,2.5-11.3,2.9c-3.8-3.3-8.3-6-13.2-7.6
			c-0.8-2.2-2-6-3.2-11.7c0,0,0.1-0.9-9.4-0.9c-9.5,0-9.4,0.9-9.4,0.9c-1.1,5.5-2.3,9.3-3.1,11.5c-4.9,1.6-9.3,4.1-13.1,7.3
			c-2.3-0.5-6-1.4-11.2-3.2c0,0-0.7-0.5-5.6,7.7c-4.9,8.3-4.1,8.6-4.1,8.6c3.8,3.6,6.3,6.4,7.8,8.3c-0.7,2.9-1,5.8-1,8.9
			c0,2.8,0.3,5.5,0.8,8.1c-1.6,1.8-4.1,4.6-7.9,8c0,0-0.8,0.4,3.9,8.7c4.7,8.4,5.4,7.9,5.4,7.9c5.2-1.7,9-2.5,11.3-2.9
			c3.8,3.3,8.3,6,13.2,7.6c0.8,2.2,2,6,3.2,11.7c0,0-0.1,0.9,9.4,0.9c9.5,0,9.4-0.9,9.4-0.9c1.1-5.5,2.3-9.3,3.1-11.5
			c4.9-1.6,9.3-4.1,13.1-7.3c2.3,0.5,6,1.4,11.2,3.2c0,0,0.7,0.5,5.6-7.7c4.9-8.3,4.1-8.6,4.1-8.6c-3.8-3.6-6.3-6.4-7.8-8.3
			c0.6-2.9,1-5.8,1-8.9c0-2.8-0.3-5.5-0.8-8.1C610.8,7.9,613.3,5.2,617.1,1.7L617.1,1.7z M570.4,51.1c-18.4,0-33.3-14.9-33.3-33.3
			c0-18.4,14.9-33.3,33.3-33.3c18.4,0,33.3,14.9,33.3,33.3C603.8,36.2,588.8,51.1,570.4,51.1L570.4,51.1z"/>
	</g>
</g>
<g>
	<circle class="st1" cx="716.4" cy="2.8" r="47"/>
	<g>
		<path class="st2" d="M727.4-18.3v5.8c-2.8-1.8-6-2.7-9.9-2.7c-2.8,0-5,0.6-6.6,1.9s-2.4,3-2.4,5.1c0,1.1,0.2,2.1,0.6,3
			c0.4,0.8,1.2,1.6,2.4,2.4c1.2,0.8,2.1,1.3,2.7,1.7c0.7,0.3,1.9,0.9,3.6,1.7c0.3,0.1,0.6,0.2,0.7,0.3c1.7,0.8,3.1,1.5,4.2,2.1
			c1.1,0.6,2.2,1.4,3.5,2.4c1.2,1,2.1,2.2,2.7,3.6c0.6,1.4,0.9,3,0.9,4.8c0,3.7-1.2,6.7-3.6,8.8c-2.4,2.2-5.5,3.4-9.3,3.7v7h-4.7
			v-7.1c-3.7-0.4-6.9-1.3-9.4-2.8v-5.9c3.3,2.5,7.3,3.7,12.1,3.7c2.9,0,5.1-0.6,6.8-1.9c1.7-1.3,2.5-3.1,2.5-5.5
			c0-1.1-0.2-2-0.6-2.9c-0.4-0.8-1.2-1.6-2.4-2.4c-1.2-0.8-2.1-1.3-2.7-1.7s-1.9-0.9-3.8-1.7c-0.5-0.2-1-0.4-1.2-0.5
			c-1.6-0.7-3-1.4-4-2c-1.1-0.6-2.2-1.4-3.3-2.4c-1.2-1-2-2.2-2.6-3.5s-0.8-2.9-0.8-4.6c0-3.6,1.2-6.5,3.7-8.7
			c2.5-2.2,5.6-3.4,9.4-3.7v-7.1h4.7v7.2C723.1-19.9,725.4-19.2,727.4-18.3z"/>
	</g>
</g>
<path class="st1" d="M950.8,8.3c0,0,24.6-4.6,24.6-24.6c0,0-1.2-20-24.6-20c0,0-1.2-35.7-39.9-36.5c0,0-26.9,0-32.6,18
	c0,0-27.6-11.9-33,12.3c0,0-22.4,6.5-20.6,25.7c0,0,1.8,20.3,25.6,25H950.8z"/>
<g>
	<path class="st1" d="M602.8,141.1c0-5.7-1.3-10.2-6.1-13.3c-21.8,0-43.5,0-65.3,0c-4.9,3.1-6.2,7.6-6.1,13.3
		c0.2,29.8,0.2,59.6,0,89.4c0,5.7,1.2,10.2,6.1,13.3c21.8,0,43.5,0,65.3,0c4.7-3.2,6.2-7.6,6.1-13.3
		C602.6,200.7,602.6,170.9,602.8,141.1z M564.1,241.7c-3.5,0-6.4-2.9-6.4-6.4c0-3.5,2.9-6.4,6.4-6.4c3.5,0,6.4,2.9,6.4,6.4
		C570.5,238.9,567.6,241.7,564.1,241.7z M592.7,224.3c-19.3,0-38.2,0-57.3,0c0-28.8,0-57.3,0-86.3c18.9,0,37.9,0,57.3,0
		C592.7,166.5,592.7,195.1,592.7,224.3z"/>
</g>
<g>
	<path class="st1" d="M698.4,377.8c0-23.1,0-46.2,0-69.6c5.3,0,10.3,0,16,0c0,23.2,0,46.4,0,69.6
		C709.1,377.8,703.8,377.8,698.4,377.8z"/>
	<path class="st1" d="M658.4,377.8c0-17.1,0-34.2,0-51.6c5.3,0,10.3,0,16,0c0,17.2,0,34.4,0,51.6
		C669.1,377.8,663.8,377.8,658.4,377.8z"/>
	<path class="st1" d="M678.4,377.8c0-13.8,0-27.5,0-41.6c5.3,0,10.3,0,16,0c0,13.9,0,27.7,0,41.6
		C689.1,377.8,683.8,377.8,678.4,377.8z"/>
	<path class="st1" d="M638.4,377.8c0-11.8,0-23.5,0-35.6c5.3,0,10.3,0,16,0c0,11.9,0,23.7,0,35.6
		C649.1,377.8,643.8,377.8,638.4,377.8z"/>
	<path class="st1" d="M618.4,377.8c0-8.8,0-17.6,0.1-26.3c0-0.3,0.1-0.6,0.3-1.3c4.9,0,10,0,15.6,0c0,9.2,0,18.4,0,27.6
		C629.1,377.8,623.8,377.8,618.4,377.8z"/>
</g>
<path class="st1" d="M701.3,278c0-2.8-2.2-5-5-5s-5,2.2-5,5c0,0.6,0.1,1.2,0.3,1.7l0,0l-22.9,22.2l0.4,0.8c-0.8-0.5-1.7-0.8-2.7-0.8
	c-2.2,0-4,1.4-4.7,3.3l0,0L623,320.7v0c-0.8-0.5-1.7-0.8-2.8-0.8c-2.8,0-5,2.2-5,5s2.2,5,5,5c2.6,0,4.7-2,5-4.6l37.8-14.8
	c0.9,0.9,2.1,1.4,3.5,1.4c2.8,0,5-2.2,5-5l26-24l0,0C699.6,282.4,701.3,280.4,701.3,278z"/>
<path class="st1" d="M66.4,572.2c17.5-14.8,39-15.6,59.9-15c14.7,0.4,29.4,5.1,43.8,8.9c3.5,0.9,8.9,6.2,8.4,8.3
	c-0.9,3.7-5,8.1-8.8,9.4c-35.1,12.3-69.8,13.6-103.3-5.6C66.4,576.3,66.4,574.3,66.4,572.2z"/>
<path class="st1" d="M267.9,503.7c-17.3,13.3-37.7,15.3-58.1,14c-15.8-1-31.7-4.3-46.8-9c-10.6-3.3-10.3-10.6-0.9-16.3
	c21-12.8,86.6-14.3,105.9,5.3C267.9,499.7,267.9,501.7,267.9,503.7z"/>
<path class="st1" d="M267.9,534c-17.6,13.6-38.4,14.6-59.2,14.3c-11.6-0.2-23.4-1.9-34.7-4.6c-18.5-4.5-20.7-8.9-18.1-28.5
	c37.5,14.4,74.8,15.9,111.9-1.3C267.9,520.5,267.9,527.2,267.9,534z"/>
<path class="st1" d="M66.4,588.4c37.1,16.1,74.4,15.9,111.8,0.8c3,18.8,0.8,23.5-16.8,28.3c-26,7.2-52.2,7.6-78.1-0.7
	c-5.9-1.9-11.2-5.5-16.8-8.3C66.4,601.8,66.4,595.1,66.4,588.4z"/>
<path class="st1" d="M66.4,618.6c37.1,16,74.4,15.7,111.8,0.8c3,19,0.5,23.6-17.8,28.6c-25,6.8-50.3,6.8-75.3-0.2
	c-6.6-1.9-12.5-6-18.7-9C66.4,632,66.4,625.3,66.4,618.6z"/>
<path class="st1" d="M267.9,564.2c-16.9,13.3-37,14-57.2,14.5c-4,0.1-8-0.6-12-0.4c-6.6,0.2-9.5-2.7-13.7-8.2
	c-5.4-7-15-11.2-23.3-15.5c-5.9-3.1-6.3-2.3-5.7-9.2c37.5,14.6,74.8,15.9,111.9-1.3C267.9,550.8,267.9,557.5,267.9,564.2z"/>
<path class="st1" d="M267.9,594.4c-17.5,13.7-38.2,14.4-59,14.5c-6.9,0-13.8-0.9-21.1-1.4c0-7.9,0-14.8,0-22.3
	c27.8,2.9,54.8,2.2,80.1-10.9C267.9,581,267.9,587.7,267.9,594.4z"/>
<path class="st1" d="M267.9,624.6c-17.5,13.8-38.2,14.4-59,14.5c-6.9,0-13.8-0.9-21.1-1.4c0-7.8,0-14.7,0-22.3
	c27.8,2.7,54.9,2.3,80.1-10.9C267.9,611.2,267.9,617.9,267.9,624.6z"/>
<g>
	<path class="st1" d="M782.9,169.7c0-4.8,0-8.6,0-13.2c2.7,0,5.1,0,7.5,0c10.6,0,21.3-0.1,31.9,0.1c2.3,0,6.3,0.6,6.5,1.5
		c0.7,3.7,1.8,7.8-1.6,11.2c-9.8,9.7-15,21.8-17.8,35.1c-0.6,3.1-1,6.2-1.5,9.7c-4.8,0-9.6,0-14.9,0c1.1-16.5,7.7-30.6,18.7-44.3
		C801.5,169.7,792.5,169.7,782.9,169.7z"/>
	<path class="st1" d="M816.5,235.9c-3.2-1.1-6.2-1.1-4.2-5.6c12.3-26.7,24.4-53.5,36.6-80.3c0.3-0.7,0.9-1.3,1.5-2.3
		c1.6,0.7,3.1,1.3,5.1,2.2C842.5,178.6,829.6,207,816.5,235.9z"/>
</g>
<g>
	<path class="st1" d="M846.7,267.3v20.1c43.9-5.2,78.6-40.6,82.7-84.8h-20C905.4,235.8,879.6,262.3,846.7,267.3z"/>
	<path class="st1" d="M846.7,100v20.1c31.4,4.7,56.3,29,62,60.1h20.2C922.8,138.1,889.1,105,846.7,100z"/>
	<g>
		<path class="st1" d="M824.3,120.1V100c-42.4,5-76.2,38.1-82.2,80.2h20.2C768,149.1,792.9,124.8,824.3,120.1z"/>
		<path class="st1" d="M824.3,287.4v-20.1c-32.9-5-58.7-31.5-62.7-64.7h-20C745.7,246.8,780.3,282.2,824.3,287.4z"/>
	</g>
</g>
<g>
	<path class="st1" d="M849.3,215.1c0.8-2,2.7-4,5.7-6.2c2.6-1.9,4.2-3.3,5-4.1c1.2-1.3,1.7-2.7,1.7-4.2c0-1.2-0.3-2.3-1-3.1
		c-0.7-0.8-1.6-1.2-2.9-1.2c-1.7,0-2.9,0.7-3.5,2c-0.4,0.8-0.6,2-0.6,3.6h-5.4c0.1-2.5,0.5-4.5,1.3-6c1.5-2.9,4.1-4.4,8-4.4
		c3,0,5.4,0.9,7.2,2.6c1.8,1.7,2.7,4,2.7,6.8c0,2.2-0.6,4.1-1.9,5.8c-0.8,1.1-2.2,2.4-4.1,3.7l-2.2,1.6c-1.4,1-2.4,1.8-2.9,2.2
		c-0.5,0.5-1,1-1.3,1.6h12.4v5.1h-19.5C848,218.8,848.4,216.8,849.3,215.1z"/>
	<path class="st1" d="M890.1,214.5h-3.2v6.3h-5.5v-6.3h-11.3v-5l10.5-17.8h6.3V210h3.2V214.5z M881.4,210v-12.6l-7.1,12.6H881.4z"/>
</g>
<g>
	<path class="st3" d="M782.6,82.5c22.1,0,43.7,0,66.2,0c0,2.8-0.5,5.9,0.2,8.5c0.5,2,2.6,3.5,4,5.3c1.5-1.6,4.4-3.2,4.4-4.8
		c0.3-23.4,0.2-46.7,0.2-70.4c-19.1,0-37.8,0-57,0c0,18.5,0,37.1,0,56c-3.2,0-5.8,0-8.8,0c0-21.7,0-43.2,0-65.3
		c24.5,0,49.2,0,74.4,0c0.1,1.7,0.2,3.6,0.2,5.5c0,23.8,0,47.6,0,71.5c0,11.7-5,17.1-15.7,17.1c-18.9,0-37.8,0-56.7,0
		c-8.3,0-11.3-3.3-11.4-12C782.6,90.1,782.6,86.4,782.6,82.5z"/>
	<path class="st3" d="M848.3,44.1c-8.7,0-17.1,0-25.7,0c0-2.9,0-5.6,0-8.7c8.3,0,16.8,0,25.7,0C848.3,38,848.3,40.8,848.3,44.1z"/>
	<path class="st3" d="M822.5,67.6c0-3.1,0-5.8,0-8.7c8.7,0,17.2,0,26,0c0,3,0,5.7,0,8.7C840,67.6,831.5,67.6,822.5,67.6z"/>
	<path class="st3" d="M817.6,44.1c-2.7,0-5.2,0-8.1,0c0-2.8,0-5.6,0-8.8c2.6,0,5.2,0,8.1,0C817.6,38.1,817.6,40.8,817.6,44.1z"/>
	<path class="st3" d="M809.4,58.8c2.7,0,5.2,0,8.1,0c0,2.8,0,5.6,0,8.8c-2.6,0-5.2,0-8.1,0C809.4,64.7,809.4,61.9,809.4,58.8z"/>
</g>
<path class="st3" d="M578.9,161.8l-4.3,10.4c0,0-2.3,1.2-5.7,0.8c-3.3-0.7-4.3-2.6-4.3-2.6l4.3-10.4c-4.8,1.5-9.4,5.6-11.2,9.9
	c-2.7,6.6,4.3,9.1,3.5,10.9c-3.8,9.2-8.3,17.4-8.5,17.9c-1.2,2.8,0.3,5.5,3.1,6c3,0.5,6.1-1.4,7.2-4.2c0.1-0.3,2.7-9.4,6.5-18.5
	c0.7-1.8,8.6-1.2,11.5-8.1C582.8,169.7,581.9,164.7,578.9,161.8z M559.2,200.8c-1.3,0.7-2.7,0.5-3.3-0.6c-0.6-1.1-0.1-2.3,1.3-3.1
	s2.7-0.5,3.3,0.6C561.1,198.8,560.5,200.1,559.2,200.8z"/>
<g>
	<path class="st1" d="M383.3-9.7c0-4.6-1.1-8.2-5-10.8c-17.7,0-35.3,0-53,0c-4,2.6-5,6.2-5,10.8c0.2,24.2,0.2,48.4,0,72.5
		c0,4.6,1,8.3,5,10.8c17.7,0,35.3,0,53,0c3.8-2.6,5-6.2,5-10.8C383.1,38.6,383.1,14.5,383.3-9.7z M351.8,71.9
		c-2.9,0-5.2-2.3-5.2-5.2c0-2.9,2.3-5.2,5.2-5.2c2.9,0,5.2,2.3,5.2,5.2C357,69.6,354.7,71.9,351.8,71.9z M375,57.7
		c-15.7,0-31,0-46.5,0c0-23.4,0-46.5,0-70c15.3,0,30.7,0,46.5,0C375,10.8,375,34.1,375,57.7z"/>
</g>
<path class="st3" d="M353.9,3.1l2.1,9.4c0,0-1.1,1.7-3.9,2.4c-2.9,0.5-4.5-0.5-4.5-0.5L345.5,5c-2.9,2.7-4.2,7.3-3.4,11.2
	c1.3,5.9,7.8,5.6,8.2,7.2c1.8,8.2,2.6,15.9,2.7,16.4c0.6,2.5,3.1,4.1,5.3,3.6c2.5-0.6,3.9-3,3.3-5.5c-0.1-0.2-2.7-8-4.6-16.2
	c-0.4-1.6,5.9-3.7,4.5-9.9C360.9,7.9,357.7,4.3,353.9,3.1z M358.9,39.2c-0.6,1-1.8,1.2-2.7,0.6c-1-0.6-1.2-1.8-0.6-2.7
	c0.6-1,1.8-1.2,2.7-0.6C359.3,37.1,359.6,38.2,358.9,39.2z"/>
<path class="st3" d="M34.6,94.7c2.8-1,3.9-3,4.3-5.6c0.8-5.1,2.1-10.1,2.6-15.2c0.5-4.4,0.1-8.8,0.4-13.2c0.1-1.6,0.6-3.3,1.4-4.8
	c2.2-3.9,4.7-7.7,7.2-11.7c2.1,1.1,4.1,2,6,3.1c2.3,1.3,4.6,1.6,7.3,1.1c3.5-0.8,7-1.3,10.5-1.9c2.4-0.5,3.8-1.9,3.5-3.5
	c-0.3-1.6-2-2.5-4.5-2.4c-1.3,0.1-2.8,0-4,0.3c-5.4,1.4-9.6-0.3-13.3-4c-1.5-1.6-3.4-2.9-5.3-4.1c-4.5-3.1-9.7-1.9-12.2,2.6
	c-2.6,4.6-5.1,9.3-7.5,14c-0.8,1.6-1.1,3.4-1.6,5c0,0.6,0,1.2,0,1.8c2,7.3,3.8,14.5,1.8,22.1c-0.9,3.3-1.2,6.8-1.8,10.2
	c0,0.9,0,1.8,0,2.7c1.3,1.2,2.5,2.4,3.8,3.5C33.7,94.7,34.2,94.7,34.6,94.7z"/>
<path class="st3" d="M55.6,94.7c2.6-1.5,3.2-3.7,2.8-6.4c-0.9-6.1-1.6-12.3-2.5-18.4c-0.1-0.8-0.3-1.7-0.9-2.2
	C51.6,64.3,48,61.1,44,57.4c-0.1,1.4-0.2,2.2-0.2,3c0,2.2,0.1,4.4-0.1,6.6c-0.1,1.9,0.5,3.3,2.2,4.5c0.9,0.6,1.5,1.8,1.7,2.9
	c0.8,5.3,1.4,10.5,1.9,15.8c0.2,2.1,1.5,3.5,3.3,4.6C53.7,94.7,54.7,94.7,55.6,94.7z"/>
<path class="st3" d="M53.2,16.9c-3.8,1.2-5.5,3.9-6.1,7.4c-0.5,3,1.6,6,4.7,7.1c3.2,1.1,6.7,0.1,8.6-2.4c0.5-0.6,0.8-1.3,1.3-2.1
	c0.9,0.3,1.9,0.7,2.8,0.8c0.4,0.1,1-0.3,1.5-0.5c-0.2-0.4-0.4-1-0.7-1.1c-2.3-0.4-2.7-1.7-2.8-3.7c-0.3-3.2-3.2-4.4-6-5.5
	C55.5,16.9,54.4,16.9,53.2,16.9z"/>
<path class="st3" d="M73.2,47.3c7.6,0,15,0,22.6,0c0.1-0.5,0.2-1,0.2-1.5c0-6,0-11.9,0-17.9c0-1.4-0.4-1.9-2-1.8c-2.6,0.1-5.2,0-8,0
	c0,1.5,0,2.8,0,4.3c-1,0-1.8,0-2.9,0c0-1.3,0-2.6,0-4.1c-3.4,0-6.6,0-10,0C73.2,33.2,73.2,40.2,73.2,47.3z"/>
<path class="st3" d="M26.2,68.1c-7,0-13.9,0-20.9,0c-0.1-0.5-0.2-1-0.2-1.5c0-6,0-11.9,0-17.9c0-1.4,0.4-1.9,1.8-1.8
	c2.4,0.1,4.9,0,7.4,0c0,1.5,0,2.8,0,4.3c0.9,0,1.7,0,2.7,0c0-1.3,0-2.6,0-4.1c3.2,0,6.1,0,9.2,0C26.2,54.1,26.2,61,26.2,68.1z"/>
<path class="st3" d="M25.9,91.9c-7,0-13.9,0-20.9,0c-0.1-0.5-0.2-1-0.2-1.5c0-6,0-11.9,0-17.9c0-1.4,0.4-1.9,1.8-1.8
	c2.4,0.1,4.9,0,7.4,0c0,1.5,0,2.8,0,4.3c0.9,0,1.7,0,2.7,0c0-1.3,0-2.6,0-4.1c3.2,0,6.1,0,9.2,0C25.9,77.8,25.9,84.8,25.9,91.9z"/>
</svg>
